<svg width="180" height="180" viewBox="0 0 180 180" fill="none" xmlns="http://www.w3.org/2000/svg">
<path d="M78.75 105C80.8211 105 82.5 106.679 82.5 108.75C82.5 110.821 80.8211 112.5 78.75 112.5C76.6789 112.5 75 110.821 75 108.75C75 106.679 76.6789 105 78.75 105Z" stroke="white" stroke-width="3.75"/>
<path d="M101.25 105C103.321 105 105 106.679 105 108.75C105 110.821 103.321 112.5 101.25 112.5C99.179 112.5 97.5 110.821 97.5 108.75C97.5 106.679 99.179 105 101.25 105Z" stroke="white" stroke-width="3.75"/>
<path d="M65 67.5L65.653 67.7296C68.907 68.8736 70.534 69.4456 71.4646 70.8074C72.3952 72.1693 72.3952 73.9782 72.3952 77.5959V84.4C72.3952 91.754 72.5533 94.1807 74.7193 96.4655C76.8853 98.75 80.3714 98.75 87.3438 98.75H90M100.601 98.75C104.504 98.75 106.455 98.75 107.834 97.626C109.213 96.502 109.607 94.591 110.395 90.7687L111.645 84.7069C112.512 80.3592 112.946 78.1854 111.836 76.7427C110.727 75.3 106.935 75.3 102.722 75.3H87.5588M72.3952 75.3H77.5" stroke="white" stroke-width="3.75" stroke-linecap="round"/>
</svg>
