<svg width="120" height="120" viewBox="0 0 120 120" fill="none" xmlns="http://www.w3.org/2000/svg">
<path d="M42.0938 79.9688C41.8438 79.9688 41.5938 79.875 41.4063 79.6563C41.2188 79.4688 41.1251 79.2187 41.1563 78.9375L43.1251 48.6875C43.1563 48.1875 43.5626 47.8125 44.0626 47.8125H52.3126V47.6875C52.3126 45.625 53.1251 43.7187 54.5626 42.25C56.0313 40.8437 57.9376 40.0312 60.0001 40.0312C64.2188 40.0312 67.6876 43.4688 67.6876 47.7188C67.6876 47.75 67.6563 47.7812 67.6563 47.8125V47.8438H75.9376C76.4376 47.8438 76.8438 48.2187 76.8751 48.7187L78.8126 78.75C78.8438 78.8438 78.8438 78.9063 78.8438 79C78.8126 79.5313 78.4063 79.9688 77.8751 79.9688H42.0938ZM43.0938 78.0938H76.8751L75.0626 49.7188H67.6563V51.9688H67.6876C68.1876 52.3125 68.4688 52.8125 68.4688 53.375C68.4688 54.3438 67.6876 55.125 66.7188 55.125C65.7501 55.125 64.9688 54.3438 64.9688 53.375C64.9688 52.8125 65.2501 52.3125 65.7501 51.9688H65.7813V49.7188H54.1876V51.9688H54.2188C54.7188 52.3125 55.0001 52.8125 55.0001 53.375C55.0001 54.3438 54.2188 55.125 53.2501 55.125C52.2813 55.125 51.5001 54.3438 51.5001 53.375C51.5001 52.8125 51.7813 52.3125 52.2813 51.9688H52.3126V49.7188H44.9063L43.0938 78.0938ZM60.0001 41.9375C56.8126 41.9375 54.1876 44.5312 54.1876 47.75V47.875H65.8438L65.8126 47.8125V47.75C65.8126 44.5312 63.1876 41.9375 60.0001 41.9375Z" fill="white"/>
</svg>
